<svg width="512" height="512" viewBox="0 0 512 512" fill="none" xmlns="http://www.w3.org/2000/svg">
<rect width="512" height="512" fill="#EEF1EE"/>
<path opacity="0.2" d="M456 239.383C456 234.533 452.069 230.603 447.22 230.603C442.371 230.603 438.44 234.533 438.44 239.383V273.443C438.44 278.292 442.371 282.223 447.22 282.223C452.069 282.223 456 278.292 456 273.443V239.383Z" fill="#2F7D69"/>
<path opacity="0.5" d="M432.68 197.842C432.68 192.993 428.749 189.062 423.9 189.062C419.051 189.062 415.12 192.993 415.12 197.842V314.963C415.12 319.812 419.051 323.743 423.9 323.743C428.749 323.743 432.68 319.812 432.68 314.963V197.842Z" fill="#2F7D69"/>
<path opacity="0.3" d="M409.36 213.532C409.36 208.683 405.429 204.752 400.58 204.752C395.731 204.752 391.8 208.683 391.8 213.532V299.282C391.8 304.132 395.731 308.062 400.58 308.062C405.429 308.062 409.36 304.132 409.36 299.282V213.532Z" fill="#2F7D69"/>
<path opacity="0.2" d="M55 273.432C55 278.281 58.9309 282.212 63.78 282.212C68.6291 282.212 72.56 278.281 72.56 273.432V239.372C72.56 234.523 68.6291 230.592 63.78 230.592C58.9309 230.592 55 234.523 55 239.372V273.432Z" fill="#2F7D69"/>
<path opacity="0.5" d="M78.32 314.972C78.32 319.822 82.2509 323.752 87.1 323.752C91.9491 323.752 95.88 319.822 95.88 314.972L95.88 197.852C95.88 193.003 91.9491 189.072 87.1 189.072C82.2509 189.072 78.32 193.003 78.32 197.852L78.32 314.972Z" fill="#2F7D69"/>
<path opacity="0.2" d="M101.63 299.283C101.63 304.132 105.561 308.062 110.41 308.062C115.259 308.062 119.19 304.132 119.19 299.283L119.19 213.533C119.19 208.683 115.259 204.753 110.41 204.753C105.561 204.753 101.63 208.683 101.63 213.533L101.63 299.283Z" fill="#2F7D69"/>
<path d="M355.92 186.082C362.21 179.182 365.82 169.782 364.96 159.522C363.54 142.512 349.71 128.842 332.69 127.592C318.88 126.582 306.66 133.612 300.11 144.452C289.93 140.602 279.13 138.032 267.89 136.922V136.812C267.9 129.982 262.56 124.132 255.73 124.002C248.78 123.872 243.1 129.472 243.1 136.402V136.932C231.86 138.032 221.06 140.612 210.88 144.462C204.33 133.622 192.11 126.602 178.3 127.602C161.28 128.842 147.45 142.522 146.03 159.532C145.17 169.792 148.78 179.192 155.07 186.092C138.65 207.622 128.97 234.562 129.25 263.792C129.9 332.042 185.51 387.892 253.75 388.812C324.27 389.762 381.74 332.882 381.74 262.572C381.74 233.812 372.11 207.312 355.91 186.092L355.92 186.082ZM309.3 312.372C304.2 312.372 300.07 308.242 300.07 303.142C300.07 298.042 304.2 293.912 309.3 293.912C314.4 293.912 318.53 298.042 318.53 303.142C318.53 308.242 314.4 312.372 309.3 312.372ZM346.01 301.312C344.69 304.392 340.93 305.532 338.11 303.722C326.62 296.342 315.96 287.172 306.76 276.512L271.9 311.372C270 313.272 266.92 313.272 265.02 311.372C263.12 309.472 263.12 306.392 265.02 304.492L300.62 268.892C291.66 256.952 284.47 243.442 279.77 228.692C278.18 223.722 272.43 221.472 267.89 224.042L249.25 234.622C248.47 235.062 248.22 236.042 248.65 236.832C250 239.292 250.6 242.222 250.1 245.332C249.2 250.952 244.64 255.452 239 256.262C233.35 257.072 228.26 254.312 225.64 249.902C225.18 249.122 224.21 248.832 223.42 249.282L206.02 259.162C202.49 261.172 200.94 265.452 202.4 269.252C213.69 298.762 236.12 330.212 259.27 351.752C262.83 355.062 260.49 361.002 255.63 361.002H255.49C201.12 361.002 157.05 316.932 157.05 262.562C157.05 208.192 201.86 163.392 256.85 164.132C310.08 164.852 353.45 208.432 353.92 261.672C354.04 275.762 351.21 289.162 346 301.312H346.01ZM264.02 267.072C264.02 261.972 268.15 257.842 273.25 257.842C278.35 257.842 282.48 261.972 282.48 267.072C282.48 272.172 278.35 276.302 273.25 276.302C268.15 276.302 264.02 272.172 264.02 267.072Z" fill="#2F7D69"/>
</svg>
