<svg width="14" height="10" viewBox="0 0 14 10" fill="none" xmlns="http://www.w3.org/2000/svg">
<path d="M4.83342 10H12.1282C12.4597 10 12.7434 9.882 12.9794 9.646C13.2154 9.41 13.3334 9.12628 13.3334 8.79483V7.32683H4.83342V10ZM0.666748 2.67317H3.83341V0H1.87191C1.54047 0 1.25675 0.118 1.02075 0.354C0.784748 0.59 0.666748 0.873722 0.666748 1.20517V2.67317ZM0.666748 6.33333H3.83341V3.673H0.666748V6.33333ZM1.87191 10H3.83341V7.32683H0.666748V8.79483C0.666748 9.12628 0.784748 9.41 1.02075 9.646C1.25675 9.882 1.54047 10 1.87191 10ZM4.83342 6.33333H13.3334V3.673H4.83342V6.33333ZM4.83342 2.67317H13.3334V1.20517C13.3334 0.873722 13.2154 0.59 12.9794 0.354C12.7434 0.118 12.4597 0 12.1282 0H4.83342V2.67317Z" fill="#2C2C2C"/>
</svg>
