<svg width="16" height="16" viewBox="0 0 16 16" fill="none" xmlns="http://www.w3.org/2000/svg">
<path d="M1.33325 6.33369C1.33327 5.59182 1.55831 4.86741 1.97867 4.25613C2.39903 3.64485 2.99493 3.17546 3.68766 2.90995C4.38039 2.64445 5.13736 2.59532 5.85859 2.76905C6.57983 2.94278 7.2314 3.33121 7.72725 3.88302C7.76218 3.92036 7.8044 3.95013 7.8513 3.97049C7.89821 3.99084 7.94879 4.00134 7.99992 4.00134C8.05105 4.00134 8.10163 3.99084 8.14854 3.97049C8.19544 3.95013 8.23766 3.92036 8.27259 3.88302C8.76688 3.32762 9.4186 2.93593 10.141 2.76009C10.8634 2.58424 11.6222 2.63258 12.3165 2.89867C13.0108 3.16477 13.6075 3.63599 14.0273 4.24962C14.4471 4.86325 14.6701 5.59019 14.6666 6.33369C14.6666 7.86035 13.6666 9.00035 12.6666 10.0004L9.00525 13.5424C8.88103 13.685 8.72787 13.7996 8.55595 13.8786C8.38403 13.9575 8.19728 13.9989 8.00811 14.0001C7.81894 14.0013 7.63168 13.9622 7.45878 13.8855C7.28587 13.8088 7.13127 13.6961 7.00525 13.555L3.33325 10.0004C2.33325 9.00035 1.33325 7.86702 1.33325 6.33369Z" fill="#DDDDDD" stroke="#DDDDDD" stroke-linecap="round" stroke-linejoin="round"/>
</svg>
