<svg width="161" height="52" viewBox="0 0 161 52" fill="none" xmlns="http://www.w3.org/2000/svg">
<g filter="url(#filter0_d_248_3726)">
<rect x="4" y="4" width="153" height="44" rx="22" fill="white"/>
<path d="M18.3333 24.3337C18.3333 23.5918 18.5583 22.8674 18.9787 22.2561C19.399 21.6448 19.9949 21.1755 20.6877 20.91C21.3804 20.6444 22.1374 20.5953 22.8586 20.769C23.5798 20.9428 24.2314 21.3312 24.7273 21.883C24.7622 21.9204 24.8044 21.9501 24.8513 21.9705C24.8982 21.9908 24.9488 22.0013 24.9999 22.0013C25.051 22.0013 25.1016 21.9908 25.1485 21.9705C25.1954 21.9501 25.2377 21.9204 25.2726 21.883C25.7669 21.3276 26.4186 20.9359 27.141 20.7601C27.8634 20.5842 28.6222 20.6326 29.3165 20.8987C30.0108 21.1648 30.6075 21.636 31.0273 22.2496C31.4471 22.8633 31.6701 23.5902 31.6666 24.3337C31.6666 25.8604 30.6666 27.0004 29.6666 28.0004L26.0053 31.5424C25.881 31.685 25.7279 31.7996 25.556 31.8786C25.384 31.9575 25.1973 31.9989 25.0081 32.0001C24.8189 32.0013 24.6317 31.9622 24.4588 31.8855C24.2859 31.8088 24.1313 31.6961 24.0053 31.555L20.3333 28.0004C19.3333 27.0004 18.3333 25.867 18.3333 24.3337Z" fill="#DDDDDD" stroke="#DDDDDD" stroke-linecap="round" stroke-linejoin="round"/>
<path d="M37.5195 24.9297L38.668 21.1016H39.9668L39.2559 24.9297H37.5195ZM47.4508 20.7734V21.5117C47.4371 22.3594 47.4371 23.5762 47.15 25.1484L45.6461 25.0117C45.8854 23.7334 45.9332 22.79 45.9605 22.0312H41.148V20.7734H47.4508ZM44.3336 23.5898V26.0508C45.6119 26.0029 46.9244 25.9072 48.1207 25.7363L48.2027 26.8301C45.6324 27.2949 42.7203 27.3359 40.5465 27.3496L40.4098 26.1328C41.1412 26.126 41.9615 26.1191 42.8297 26.1055V23.5898H44.3336ZM50.4039 19.8574V23.7129H52.0035V24.9844H50.4039V29.1133H48.8453V19.8574H50.4039ZM50.8004 30.7402V31.9707H42.2555V28.293H43.7867V30.7402H50.8004ZM62.591 19.8711V26.8574H61.0598V19.8711H62.591ZM62.591 27.4727V32.0664H54.3879V27.4727H62.591ZM55.8918 28.6758V30.8359H61.1008V28.6758H55.8918ZM56.9035 21.5391C56.9035 23.1113 57.9563 24.5879 59.884 25.2031L59.1457 26.3652C57.717 25.9209 56.6916 25.0117 56.1379 23.8223C55.5705 25.1006 54.5314 26.1191 53.048 26.6113L52.2961 25.4082C54.3059 24.7656 55.3313 23.166 55.3313 21.5391V20.3359H56.9035V21.5391ZM73.7172 21.0742C73.7035 24.8066 72.5824 28.0605 67.9887 30.3027L67.182 29.127C69.308 28.0879 70.6342 26.8506 71.393 25.3672L67.4555 25.7227L67.2641 24.4238L71.8715 24.1367C72.0424 23.5625 72.1449 22.9473 72.1996 22.3047H67.893V21.0742H73.7172ZM77.3402 19.8574V32.2168H75.809V19.8574H77.3402ZM89.1992 19.8711V32.2031H87.6543V29.373H85.0293V28.2246H87.6543V19.8711H89.1992ZM78.7129 26.2148C81.0371 26.2148 84.127 26.2012 86.8066 25.832L86.9023 26.9531C85.7676 27.1514 84.5986 27.2676 83.457 27.3359V31.834H81.9258V27.418C80.8457 27.4521 79.8203 27.459 78.9043 27.459L78.7129 26.2148ZM82.7734 20.4043C84.5918 20.4043 85.918 21.4297 85.918 22.9062C85.918 24.4102 84.5918 25.3945 82.7734 25.3945C80.9141 25.3945 79.6016 24.4102 79.6016 22.9062C79.6016 21.4297 80.9141 20.4043 82.7734 20.4043ZM82.7734 21.5664C81.7344 21.5664 81.0371 22.0996 81.0371 22.9062C81.0371 23.7402 81.7344 24.2324 82.7734 24.2324C83.7578 24.2324 84.4688 23.7402 84.4688 22.9062C84.4688 22.0996 83.7578 21.5664 82.7734 21.5664ZM100.552 25.6543V26.8711H91.8844V20.9375H100.457V22.168H93.3883V25.6543H100.552ZM101.81 29.3867V30.6445H90.5172V29.3867H101.81ZM104.823 21.1152L103.675 24.9434H102.376L103.087 21.1152H104.823ZM116.614 29.7012V30.6035H105.485V29.7012H110.489V27.4043H106.88V23.6582H114.153V21.7441H106.852V20.8555H115.206V24.5332H107.946V26.5156H115.493V27.4043H111.542V29.7012H116.614ZM131.486 25.7363V26.6387H120.398V25.7363H131.486ZM130.188 23.6992V24.5742H121.807V20.4453H130.105V21.3477H122.859V23.6992H130.188ZM125.936 27.7051C128.547 27.7051 130.105 28.498 130.119 29.8926C130.105 31.3008 128.547 32.0801 125.936 32.0801C123.311 32.0801 121.738 31.3008 121.738 29.8926C121.738 28.498 123.311 27.7051 125.936 27.7051ZM125.936 28.5391C123.98 28.5527 122.818 29.0449 122.832 29.8926C122.818 30.7539 123.98 31.2324 125.936 31.2324C127.863 31.2324 129.039 30.7539 129.039 29.8926C129.039 29.0449 127.863 28.5527 125.936 28.5391ZM143.263 26.6523V27.541H132.134V26.6523H137.166V25.3672H133.584V22.4004H140.748V21.1426H133.543V20.2676H141.828V23.207H134.65V24.5059H142.088V25.3672H138.218V26.6523H143.263ZM141.896 28.4707V31.998H140.816V29.3457H133.379V28.4707H141.896Z" fill="#6B6B6F"/>
</g>
<defs>
<filter id="filter0_d_248_3726" x="0" y="0" width="161" height="52" filterUnits="userSpaceOnUse" color-interpolation-filters="sRGB">
<feFlood flood-opacity="0" result="BackgroundImageFix"/>
<feColorMatrix in="SourceAlpha" type="matrix" values="0 0 0 0 0 0 0 0 0 0 0 0 0 0 0 0 0 0 127 0" result="hardAlpha"/>
<feOffset/>
<feGaussianBlur stdDeviation="2"/>
<feComposite in2="hardAlpha" operator="out"/>
<feColorMatrix type="matrix" values="0 0 0 0 0 0 0 0 0 0 0 0 0 0 0 0 0 0 0.2 0"/>
<feBlend mode="normal" in2="BackgroundImageFix" result="effect1_dropShadow_248_3726"/>
<feBlend mode="normal" in="SourceGraphic" in2="effect1_dropShadow_248_3726" result="shape"/>
</filter>
</defs>
</svg>
