<svg width="32" height="32" viewBox="0 0 32 32" fill="none" xmlns="http://www.w3.org/2000/svg">
<circle cx="16" cy="16" r="15.5" fill="white" stroke="#DDDDDD"/>
<path d="M9.33325 14.3337C9.33327 13.5918 9.55831 12.8674 9.97867 12.2561C10.399 11.6448 10.9949 11.1755 11.6877 10.91C12.3804 10.6444 13.1374 10.5953 13.8586 10.769C14.5798 10.9428 15.2314 11.3312 15.7273 11.883C15.7622 11.9204 15.8044 11.9501 15.8513 11.9705C15.8982 11.9908 15.9488 12.0013 15.9999 12.0013C16.051 12.0013 16.1016 11.9908 16.1485 11.9705C16.1954 11.9501 16.2377 11.9204 16.2726 11.883C16.7669 11.3276 17.4186 10.9359 18.141 10.7601C18.8634 10.5842 19.6222 10.6326 20.3165 10.8987C21.0108 11.1648 21.6075 11.636 22.0273 12.2496C22.4471 12.8633 22.6701 13.5902 22.6666 14.3337C22.6666 15.8604 21.6666 17.0004 20.6666 18.0004L17.0053 21.5424C16.881 21.685 16.7279 21.7996 16.556 21.8786C16.384 21.9575 16.1973 21.9989 16.0081 22.0001C15.8189 22.0013 15.6317 21.9622 15.4588 21.8855C15.2859 21.8088 15.1313 21.6961 15.0053 21.555L11.3333 18.0004C10.3333 17.0004 9.33325 15.867 9.33325 14.3337Z" fill="#DDDDDD" stroke="#DDDDDD" stroke-linecap="round" stroke-linejoin="round"/>
</svg>
