<svg width="300" height="300" viewBox="0 0 300 300" fill="none" xmlns="http://www.w3.org/2000/svg">
<rect width="300" height="300" fill="#EEF1EE"/>
<path opacity="0.2" d="M267.188 140.263C267.188 137.422 264.884 135.119 262.043 135.119C259.202 135.119 256.898 137.422 256.898 140.263V160.22C256.898 163.061 259.202 165.365 262.043 165.365C264.884 165.365 267.188 163.061 267.188 160.22V140.263Z" fill="#2F7D69"/>
<path opacity="0.5" d="M253.523 115.923C253.523 113.082 251.22 110.779 248.379 110.779C245.538 110.779 243.234 113.082 243.234 115.923V184.548C243.234 187.39 245.538 189.693 248.379 189.693C251.22 189.693 253.523 187.39 253.523 184.548V115.923Z" fill="#2F7D69"/>
<path opacity="0.3" d="M239.859 125.117C239.859 122.275 237.556 119.972 234.715 119.972C231.874 119.972 229.57 122.275 229.57 125.117V175.361C229.57 178.202 231.874 180.505 234.715 180.505C237.556 180.505 239.859 178.202 239.859 175.361V125.117Z" fill="#2F7D69"/>
<path opacity="0.2" d="M32.2266 160.214C32.2266 163.056 34.5298 165.359 37.3711 165.359C40.2123 165.359 42.5156 163.056 42.5156 160.214V140.257C42.5156 137.416 40.2123 135.113 37.3711 135.113C34.5298 135.113 32.2266 137.416 32.2266 140.257V160.214Z" fill="#2F7D69"/>
<path opacity="0.5" d="M45.8906 184.554C45.8906 187.395 48.1939 189.699 51.0352 189.699C53.8764 189.699 56.1797 187.395 56.1797 184.554L56.1797 115.929C56.1797 113.088 53.8764 110.785 51.0352 110.785C48.1939 110.785 45.8906 113.088 45.8906 115.929L45.8906 184.554Z" fill="#2F7D69"/>
<path opacity="0.2" d="M59.5488 175.361C59.5488 178.202 61.8521 180.505 64.6934 180.505C67.5346 180.505 69.8379 178.202 69.8379 175.361V125.117C69.8379 122.275 67.5346 119.972 64.6934 119.972C61.8521 119.972 59.5488 122.275 59.5488 125.117L59.5488 175.361Z" fill="#2F7D69"/>
<path d="M208.547 109.033C212.232 104.99 214.348 99.4818 213.844 93.4701C213.012 83.5033 204.908 75.4935 194.936 74.7611C186.844 74.1693 179.684 78.2884 175.846 84.64C169.881 82.3841 163.553 80.8783 156.967 80.2279V80.1634C156.973 76.1615 153.844 72.7337 149.842 72.6575C145.77 72.5814 142.441 75.8626 142.441 79.9232V80.2337C135.856 80.8783 129.527 82.39 123.563 84.6458C119.725 78.2943 112.564 74.181 104.473 74.7669C94.5 75.4935 86.3965 83.5091 85.5645 93.4759C85.0606 99.4876 87.1758 104.995 90.8614 109.038C81.2403 121.654 75.5684 137.439 75.7325 154.566C76.1133 194.556 108.697 227.281 148.682 227.82C190.002 228.376 223.676 195.048 223.676 153.851C223.676 136.999 218.033 121.472 208.541 109.038L208.547 109.033ZM181.23 183.031C178.242 183.031 175.822 180.611 175.822 177.622C175.822 174.634 178.242 172.214 181.23 172.214C184.219 172.214 186.639 174.634 186.639 177.622C186.639 180.611 184.219 183.031 181.23 183.031ZM202.74 176.55C201.967 178.355 199.764 179.023 198.111 177.962C191.379 173.638 185.133 168.265 179.742 162.019L159.316 182.445C158.203 183.558 156.398 183.558 155.285 182.445C154.172 181.331 154.172 179.527 155.285 178.413L176.145 157.554C170.895 150.558 166.682 142.642 163.928 133.999C162.996 131.087 159.627 129.769 156.967 131.275L146.045 137.474C145.588 137.732 145.441 138.306 145.693 138.769C146.484 140.21 146.836 141.927 146.543 143.749C146.016 147.042 143.344 149.679 140.039 150.154C136.729 150.628 133.746 149.011 132.211 146.427C131.941 145.97 131.373 145.8 130.91 146.064L120.715 151.853C118.647 153.031 117.738 155.538 118.594 157.765C125.209 175.056 138.352 193.484 151.916 206.105C154.002 208.044 152.631 211.525 149.783 211.525H149.701C117.844 211.525 92.0215 185.702 92.0215 153.845C92.0215 121.988 118.277 95.7376 150.498 96.1712C181.688 96.5931 207.1 122.128 207.375 153.324C207.445 161.579 205.787 169.431 202.734 176.55H202.74ZM154.699 156.488C154.699 153.499 157.119 151.079 160.107 151.079C163.096 151.079 165.516 153.499 165.516 156.488C165.516 159.476 163.096 161.896 160.107 161.896C157.119 161.896 154.699 159.476 154.699 156.488Z" fill="#2F7D69"/>
</svg>
