<svg width="129" height="31" viewBox="0 0 129 31" fill="none" xmlns="http://www.w3.org/2000/svg">
<path d="M28.5285 11.5588H31.7208V16.9904H28.5285V30.9006H22.144V0H28.5285V11.5588ZM6.11565 8.94231H12.6009V0.827993H18.6494V29.4765H0V0.827993H6.11565V8.94231ZM6.11565 14.1421V24.2105H12.6009V14.1421H6.11565Z" fill="#2F7D69"/>
<path d="M62.467 30.9006H56.0826V0H62.467V30.9006ZM32.8296 21.4284V9.17414C32.8296 3.47756 36.8619 0.331196 42.3728 0.331196C47.9172 0.331196 51.9495 3.44444 51.9495 9.17414V21.4284C51.9495 27.1581 47.9172 30.2714 42.4064 30.2714C36.8955 30.2714 32.8296 27.1581 32.8296 21.4284ZM39.0461 8.64423V21.9583C39.0461 24.1111 40.5246 25.1709 42.3728 25.1709C44.2209 25.1709 45.733 24.1111 45.733 21.9583V8.64423C45.733 6.52457 44.2209 5.39851 42.3728 5.43162C40.5246 5.46474 39.0461 6.55769 39.0461 8.64423Z" fill="#2F7D69"/>
<path d="M73.119 13.0823H94.3894V18.1827H66.6338V0.861112H93.8518V5.96154H73.119V13.0823ZM83.8718 20.0043V24.9722H96.0696V30.0727H65.1552V24.9722H77.353V20.0043H83.8718Z" fill="#2F7D69"/>
<path d="M116.802 11.6581V13.7115H129V18.3152H98.0857V13.7115H110.283V11.6581H99.2282V0.0331192H105.781V1.82158H121.271V0.0331192H127.79V11.6581H116.802ZM121.271 5.66346H105.781V7.61752H121.271V5.66346ZM105.008 20.0705H122.078C126.312 20.0705 128.328 22.2564 128.328 25.5353C128.328 28.8141 126.312 31 122.078 31H105.008C100.774 31 98.7577 28.8141 98.7577 25.5353C98.7577 22.2564 100.774 20.0705 105.008 20.0705ZM107.226 26.9263H119.86C121.07 26.9263 121.843 26.5951 121.843 25.5353C121.843 24.4754 121.07 24.1442 119.86 24.1442H107.226C106.016 24.1442 105.243 24.4754 105.243 25.5353C105.243 26.5951 106.016 26.9263 107.226 26.9263Z" fill="#2F7D69"/>
</svg>
