<svg width="16" height="16" viewBox="0 0 16 16" fill="none" xmlns="http://www.w3.org/2000/svg">
<path d="M8 12.6667V14.6667" stroke="#2C2C2C" stroke-linecap="round" stroke-linejoin="round"/>
<path d="M12.6667 6.66675V8.00008C12.6667 9.23776 12.175 10.4247 11.2998 11.2999C10.4247 12.1751 9.23768 12.6667 8 12.6667C6.76233 12.6667 5.57534 12.1751 4.70017 11.2999C3.825 10.4247 3.33334 9.23776 3.33334 8.00008V6.66675" stroke="#2C2C2C" stroke-linecap="round" stroke-linejoin="round"/>
<path d="M10 3.33325C10 2.22868 9.10457 1.33325 8 1.33325C6.89543 1.33325 6 2.22868 6 3.33325V7.99992C6 9.10449 6.89543 9.99992 8 9.99992C9.10457 9.99992 10 9.10449 10 7.99992V3.33325Z" fill="#2C2C2C" stroke="#2C2C2C" stroke-linecap="round" stroke-linejoin="round"/>
</svg>
