<svg width="50" height="50" viewBox="0 0 50 50" fill="none" xmlns="http://www.w3.org/2000/svg">
<rect width="50" height="50" rx="8" fill="#EEF1EE"/>
<mask id="mask0_73_254" style="mask-type:alpha" maskUnits="userSpaceOnUse" x="9" y="9" width="32" height="32">
<rect x="9" y="9" width="32" height="32" fill="#D9D9D9"/>
</mask>
<g mask="url(#mask0_73_254)">
<path d="M15.764 36.6666C15.0907 36.6666 14.5207 36.4333 14.054 35.9666C13.5873 35.4999 13.354 34.9298 13.354 34.2563V23.6049C12.8171 23.164 12.4141 22.5918 12.145 21.8883C11.8757 21.1849 11.8701 20.4256 12.1283 19.6103L13.477 15.2049C13.6548 14.6443 13.9565 14.1921 14.382 13.8486C14.8078 13.505 15.3163 13.3333 15.9077 13.3333H34.1077C34.6992 13.3333 35.2043 13.4974 35.623 13.8256C36.0419 14.1538 36.347 14.6051 36.5383 15.1796L37.9127 19.6103C38.1709 20.4256 38.1653 21.1824 37.896 21.8806C37.6269 22.579 37.2239 23.1624 36.687 23.6306V34.2563C36.687 34.9298 36.4537 35.4999 35.987 35.9666C35.5203 36.4333 34.9503 36.6666 34.277 36.6666H15.764ZM27.954 22.6666C28.6822 22.6666 29.2297 22.4439 29.5963 21.9986C29.963 21.5533 30.113 21.075 30.0463 20.5639L29.236 15.3333H26.0203V20.5999C26.0203 21.1606 26.2101 21.6453 26.5897 22.0539C26.9692 22.4624 27.424 22.6666 27.954 22.6666ZM21.954 22.6666C22.5676 22.6666 23.0653 22.4624 23.4473 22.0539C23.8296 21.6453 24.0207 21.1606 24.0207 20.5999V15.3333H20.805L19.995 20.6153C19.923 21.0888 20.0717 21.5491 20.441 21.9963C20.8103 22.4431 21.3147 22.6666 21.954 22.6666ZM16.0207 22.6666C16.5147 22.6666 16.9395 22.4944 17.295 22.1499C17.6506 21.8055 17.8702 21.3726 17.954 20.8513L18.7383 15.3333H15.9077C15.7623 15.3333 15.647 15.3653 15.5617 15.4293C15.4761 15.4935 15.412 15.5897 15.3693 15.7179L14.087 20.0563C13.911 20.6289 13.994 21.2071 14.336 21.7909C14.6778 22.3747 15.2393 22.6666 16.0207 22.6666ZM34.0207 22.6666C34.742 22.6666 35.2941 22.3833 35.677 21.8166C36.0599 21.2499 36.1522 20.6631 35.954 20.0563L34.605 15.6923C34.5623 15.564 34.4983 15.4721 34.413 15.4166C34.3275 15.361 34.212 15.3333 34.0667 15.3333H31.3027L32.087 20.8513C32.1708 21.3726 32.3905 21.8055 32.746 22.1499C33.1016 22.4944 33.5265 22.6666 34.0207 22.6666ZM15.764 34.6666H34.277C34.3966 34.6666 34.4948 34.6281 34.5717 34.5513C34.6488 34.4744 34.6873 34.376 34.6873 34.2563V24.5486C34.542 24.6017 34.4206 24.6346 34.323 24.6473C34.2257 24.6601 34.1249 24.6666 34.0207 24.6666C33.4207 24.6666 32.8929 24.558 32.4373 24.3409C31.9818 24.1238 31.5402 23.7759 31.1127 23.2973C30.7385 23.7144 30.2958 24.0469 29.7847 24.2949C29.2736 24.5427 28.6907 24.6666 28.036 24.6666C27.4702 24.6666 26.9369 24.549 26.436 24.3139C25.9351 24.079 25.4633 23.7401 25.0207 23.2973C24.6087 23.7401 24.142 24.079 23.6207 24.3139C23.0991 24.549 22.5709 24.6666 22.036 24.6666C21.4342 24.6666 20.8701 24.5576 20.3437 24.3396C19.8172 24.1216 19.354 23.7741 18.954 23.2973C18.3931 23.8579 17.8763 24.2264 17.4037 24.4026C16.9312 24.5786 16.4702 24.6666 16.0207 24.6666C15.9162 24.6666 15.8085 24.6601 15.6973 24.6473C15.5862 24.6346 15.4717 24.6017 15.3537 24.5486V34.2563C15.3537 34.376 15.3922 34.4744 15.4693 34.5513C15.5462 34.6281 15.6445 34.6666 15.764 34.6666Z" fill="#B0B1B4"/>
<path fill-rule="evenodd" clip-rule="evenodd" d="M17.295 22.1499C16.9395 22.4944 16.5147 22.6666 16.0207 22.6666C15.2393 22.6666 14.6778 22.3747 14.336 21.7909C13.994 21.2071 13.911 20.6289 14.087 20.0563L15.3693 15.7179C15.412 15.5897 15.4761 15.4935 15.5617 15.4293C15.647 15.3653 15.7623 15.3333 15.9077 15.3333H18.7383L17.954 20.8513C17.8702 21.3726 17.6506 21.8055 17.295 22.1499Z" fill="#B0B1B4"/>
<path fill-rule="evenodd" clip-rule="evenodd" d="M23.4473 22.0539C23.0653 22.4624 22.5676 22.6666 21.954 22.6666C21.3147 22.6666 20.8103 22.4431 20.441 21.9963C20.0717 21.5491 19.923 21.0888 19.995 20.6153L20.805 15.3333H24.0207V20.5999C24.0207 21.1606 23.8296 21.6453 23.4473 22.0539Z" fill="#B0B1B4"/>
<path fill-rule="evenodd" clip-rule="evenodd" d="M29.5963 21.9986C29.2297 22.4439 28.6822 22.6666 27.954 22.6666C27.424 22.6666 26.9692 22.4624 26.5897 22.0539C26.2101 21.6453 26.0203 21.1606 26.0203 20.5999V15.3333H29.236L30.0463 20.5639C30.113 21.075 29.963 21.5533 29.5963 21.9986Z" fill="#B0B1B4"/>
<path fill-rule="evenodd" clip-rule="evenodd" d="M35.677 21.8166C35.2941 22.3833 34.742 22.6666 34.0207 22.6666C33.5265 22.6666 33.1016 22.4944 32.746 22.1499C32.3905 21.8055 32.1708 21.3726 32.087 20.8513L31.3027 15.3333H34.0667C34.212 15.3333 34.3275 15.361 34.413 15.4166C34.4983 15.4721 34.5623 15.564 34.605 15.6923L35.954 20.0563C36.1522 20.6631 36.0599 21.2499 35.677 21.8166Z" fill="#B0B1B4"/>
</g>
</svg>
