<svg width="24" height="24" viewBox="0 0 24 24" fill="none" xmlns="http://www.w3.org/2000/svg">
<path fill-rule="evenodd" clip-rule="evenodd" d="M12.0001 1C9.76912 1 8.00012 2.83686 8.00012 5.002V11.6344C8.00012 13.7984 9.76912 15.6363 12.0001 15.6363C14.2311 15.6363 16.0001 13.7984 16.0001 11.6344V5.002C16.0001 2.83791 14.2311 1 12.0001 1Z" fill="white"/>
<path d="M13 20.8061V22.9545C13 23.2318 12.8946 23.4977 12.7071 23.6938C12.5196 23.8898 12.2652 24 12 24C11.7348 24 11.4804 23.8898 11.2929 23.6938C11.1054 23.4977 11 23.2318 11 22.9545V20.8061C8.79979 20.5489 6.76744 19.4529 5.29155 17.7277C3.81567 16.0025 2.99982 13.7691 3 11.4545C3 11.1773 3.10536 10.9113 3.29289 10.7153C3.48043 10.5192 3.73478 10.4091 4 10.4091C4.26522 10.4091 4.51957 10.5192 4.70711 10.7153C4.89464 10.9113 5 11.1773 5 11.4545C5 12.4156 5.18106 13.3672 5.53284 14.2551C5.88463 15.143 6.40024 15.9497 7.05025 16.6293C7.70026 17.3088 8.47194 17.8479 9.32122 18.2156C10.1705 18.5834 11.0807 18.7727 12 18.7727C12.9193 18.7727 13.8295 18.5834 14.6788 18.2156C15.5281 17.8479 16.2997 17.3088 16.9497 16.6293C17.5998 15.9497 18.1154 15.143 18.4672 14.2551C18.8189 13.3672 19 12.4156 19 11.4545C19 11.1773 19.1054 10.9113 19.2929 10.7153C19.4804 10.5192 19.7348 10.4091 20 10.4091C20.2652 10.4091 20.5196 10.5192 20.7071 10.7153C20.8946 10.9113 21 11.1773 21 11.4545C21.0002 13.7691 20.1843 16.0025 18.7084 17.7277C17.2326 19.4529 15.2002 20.5489 13 20.8061Z" fill="white"/>
</svg>
