<svg width="32" height="32" viewBox="0 0 32 32" fill="none" xmlns="http://www.w3.org/2000/svg">
<path d="M4 14.6495V20.6567C4 24.4324 4 26.3204 5.17157 27.4933C6.34315 28.6664 8.22876 28.6664 12 28.6664H20C23.7712 28.6664 25.6568 28.6664 26.8284 27.4933C28 26.3204 28 24.4324 28 20.6567V14.6495" stroke="white" stroke-width="1.5"/>
<path d="M20 22.6357C19.0878 23.4453 17.6357 23.9691 16 23.9691C14.3642 23.9691 12.9121 23.4453 12 22.6357" stroke="white" stroke-width="1.5" stroke-linecap="round"/>
<path d="M23.7276 3.33727L8.19985 3.37604C5.88229 3.25666 5.28808 5.04347 5.28808 5.91692C5.28808 6.69814 5.18748 7.837 3.76706 9.97748C2.34665 12.118 2.45338 12.7538 3.25436 14.2356C3.91912 15.4655 5.60996 15.9459 6.49157 16.0267C9.29185 16.0904 10.6543 13.669 10.6543 11.967C12.0434 16.2434 15.9942 16.2434 17.7544 15.7543C19.5182 15.2644 21.029 13.5108 21.3855 11.967C21.5934 13.8856 22.2243 15.0051 24.0884 15.7744C26.0194 16.5712 27.6799 15.3534 28.5131 14.5726C29.3463 13.7919 29.881 12.0587 28.3958 10.1538C27.3715 8.84003 26.9446 7.60242 26.8044 6.31971C26.7231 5.57647 26.6518 4.77783 26.1296 4.2696C25.3664 3.52688 24.2715 3.30152 23.7276 3.33727Z" stroke="white" stroke-width="1.5" stroke-linecap="round" stroke-linejoin="round"/>
</svg>
