<svg width="127" height="127" viewBox="0 0 127 127" fill="none" xmlns="http://www.w3.org/2000/svg">
<rect x="0.5" y="0.5" width="126" height="126" rx="12.5" fill="#EEF1EE"/>
<rect x="0.5" y="0.5" width="126" height="126" rx="12.5" stroke="white"/>
<mask id="mask0_1073_4328" style="mask-type:alpha" maskUnits="userSpaceOnUse" x="23" y="23" width="81" height="81">
<rect x="23.5" y="23.5" width="80" height="80" fill="#D9D9D9"/>
</mask>
<g mask="url(#mask0_1073_4328)">
<path d="M40.4101 92.6666C38.7267 92.6666 37.3017 92.0833 36.1351 90.9166C34.9684 89.75 34.3851 88.3247 34.3851 86.6408V60.0125C33.0428 58.9103 32.0353 57.4797 31.3626 55.7208C30.6892 53.9625 30.6753 52.0641 31.3209 50.0258L34.6926 39.0125C35.137 37.6108 35.8912 36.4805 36.9551 35.6216C38.0195 34.7628 39.2909 34.3333 40.7692 34.3333H86.2692C87.7481 34.3333 89.0109 34.7436 90.0576 35.5641C91.1048 36.3847 91.8676 37.513 92.3459 38.9491L95.7817 50.0258C96.4273 52.0641 96.4134 53.9561 95.7401 55.7016C95.0673 57.4478 94.0598 58.9061 92.7176 60.0766V86.6408C92.7176 88.3247 92.1342 89.75 90.9676 90.9166C89.8009 92.0833 88.3759 92.6666 86.6926 92.6666H40.4101ZM70.8851 57.6666C72.7056 57.6666 74.0742 57.11 74.9909 55.9966C75.9076 54.8833 76.2826 53.6878 76.1159 52.41L74.0901 39.3333H66.0509V52.5C66.0509 53.9016 66.5253 55.1133 67.4742 56.135C68.4231 57.1561 69.5601 57.6666 70.8851 57.6666ZM55.8851 57.6666C57.419 57.6666 58.6634 57.1561 59.6184 56.135C60.574 55.1133 61.0517 53.9016 61.0517 52.5V39.3333H53.0126L50.9876 52.5383C50.8076 53.7222 51.1792 54.873 52.1026 55.9908C53.0259 57.108 54.2867 57.6666 55.8851 57.6666ZM41.0517 57.6666C42.2867 57.6666 43.3487 57.2361 44.2376 56.375C45.1265 55.5139 45.6756 54.4316 45.8851 53.1283L47.8459 39.3333H40.7692C40.4059 39.3333 40.1176 39.4133 39.9042 39.5733C39.6903 39.7339 39.5301 39.9744 39.4234 40.295L36.2176 51.1408C35.7776 52.5725 35.9851 54.018 36.8401 55.4775C37.6945 56.9369 39.0984 57.6666 41.0517 57.6666ZM86.0517 57.6666C87.8551 57.6666 89.2353 56.9583 90.1926 55.5416C91.1498 54.125 91.3806 52.658 90.8851 51.1408L87.5126 40.2308C87.4059 39.9103 87.2459 39.6805 87.0326 39.5416C86.8187 39.4028 86.5301 39.3333 86.1667 39.3333H79.2567L81.2176 53.1283C81.427 54.4316 81.9762 55.5139 82.8651 56.375C83.754 57.2361 84.8162 57.6666 86.0517 57.6666ZM40.4101 87.6666H86.6926C86.9915 87.6666 87.237 87.5705 87.4292 87.3783C87.622 87.1861 87.7184 86.9403 87.7184 86.6408V62.3716C87.3551 62.5044 87.0515 62.5866 86.8076 62.6183C86.5642 62.6505 86.3123 62.6666 86.0517 62.6666C84.5517 62.6666 83.2323 62.3953 82.0934 61.8525C80.9545 61.3097 79.8506 60.44 78.7817 59.2433C77.8462 60.2861 76.7395 61.1175 75.4617 61.7375C74.1839 62.3569 72.7267 62.6666 71.0901 62.6666C69.6756 62.6666 68.3423 62.3728 67.0901 61.785C65.8378 61.1978 64.6584 60.3505 63.5517 59.2433C62.5217 60.3505 61.3551 61.1978 60.0517 61.785C58.7478 62.3728 57.4273 62.6666 56.0901 62.6666C54.5856 62.6666 53.1753 62.3941 51.8592 61.8491C50.5431 61.3041 49.3851 60.4355 48.3851 59.2433C46.9828 60.645 45.6909 61.5661 44.5092 62.0066C43.3281 62.4466 42.1756 62.6666 41.0517 62.6666C40.7906 62.6666 40.5212 62.6505 40.2434 62.6183C39.9656 62.5866 39.6792 62.5044 39.3842 62.3716V86.6408C39.3842 86.9403 39.4806 87.1861 39.6734 87.3783C39.8656 87.5705 40.1112 87.6666 40.4101 87.6666Z" fill="#2F7D69"/>
<path fill-rule="evenodd" clip-rule="evenodd" d="M44.2376 56.375C43.3487 57.2361 42.2867 57.6666 41.0517 57.6666C39.0984 57.6666 37.6945 56.9369 36.8401 55.4775C35.9851 54.018 35.7776 52.5725 36.2176 51.1408L39.4234 40.295C39.5301 39.9744 39.6903 39.7339 39.9042 39.5733C40.1176 39.4133 40.4059 39.3333 40.7692 39.3333H47.8459L45.8851 53.1283C45.6756 54.4316 45.1265 55.5139 44.2376 56.375Z" fill="#2F7D69"/>
<path fill-rule="evenodd" clip-rule="evenodd" d="M59.6184 56.135C58.6634 57.1561 57.419 57.6666 55.8851 57.6666C54.2867 57.6666 53.0259 57.108 52.1026 55.9908C51.1792 54.873 50.8076 53.7222 50.9876 52.5383L53.0126 39.3333H61.0517V52.5C61.0517 53.9016 60.574 55.1133 59.6184 56.135Z" fill="#2F7D69"/>
<path fill-rule="evenodd" clip-rule="evenodd" d="M74.9909 55.9966C74.0742 57.11 72.7056 57.6666 70.8851 57.6666C69.5601 57.6666 68.4231 57.1561 67.4742 56.135C66.5253 55.1133 66.0509 53.9016 66.0509 52.5V39.3333H74.0901L76.1159 52.41C76.2826 53.6878 75.9076 54.8833 74.9909 55.9966Z" fill="#2F7D69"/>
<path fill-rule="evenodd" clip-rule="evenodd" d="M90.1926 55.5416C89.2353 56.9583 87.8551 57.6666 86.0517 57.6666C84.8162 57.6666 83.754 57.2361 82.8651 56.375C81.9762 55.5139 81.427 54.4316 81.2176 53.1283L79.2567 39.3333H86.1667C86.5301 39.3333 86.8187 39.4028 87.0326 39.5416C87.2459 39.6805 87.4059 39.9103 87.5126 40.2308L90.8851 51.1408C91.3806 52.658 91.1498 54.125 90.1926 55.5416Z" fill="#2F7D69"/>
</g>
</svg>
