<svg width="16" height="16" viewBox="0 0 16 16" fill="none" xmlns="http://www.w3.org/2000/svg">
<mask id="mask0_164_3666" style="mask-type:alpha" maskUnits="userSpaceOnUse" x="0" y="0" width="16" height="16">
<rect width="16" height="16" fill="#D9D9D9"/>
</mask>
<g mask="url(#mask0_164_3666)">
<path d="M14.2667 9.49992L9.50004 14.2666C9.36671 14.3999 9.21671 14.4999 9.05004 14.5666C8.88337 14.6333 8.71671 14.6666 8.55004 14.6666C8.38337 14.6666 8.21671 14.6333 8.05004 14.5666C7.88337 14.4999 7.73337 14.3999 7.60004 14.2666L1.71671 8.38325C1.59449 8.26103 1.50004 8.11936 1.43337 7.95825C1.36671 7.79714 1.33337 7.6277 1.33337 7.44992V2.66659C1.33337 2.29992 1.46393 1.98603 1.72504 1.72492C1.98615 1.46381 2.30004 1.33325 2.66671 1.33325H7.45004C7.62782 1.33325 7.80004 1.36936 7.96671 1.44159C8.13337 1.51381 8.27782 1.61103 8.40004 1.73325L14.2667 7.61659C14.4 7.74992 14.4973 7.89992 14.5584 8.06659C14.6195 8.23325 14.65 8.39992 14.65 8.56659C14.65 8.73325 14.6195 8.89714 14.5584 9.05825C14.4973 9.21936 14.4 9.36658 14.2667 9.49992ZM4.33337 5.33325C4.61115 5.33325 4.84726 5.23603 5.04171 5.04158C5.23615 4.84714 5.33337 4.61103 5.33337 4.33325C5.33337 4.05547 5.23615 3.81936 5.04171 3.62492C4.84726 3.43047 4.61115 3.33325 4.33337 3.33325C4.0556 3.33325 3.81948 3.43047 3.62504 3.62492C3.4306 3.81936 3.33337 4.05547 3.33337 4.33325C3.33337 4.61103 3.4306 4.84714 3.62504 5.04158C3.81948 5.23603 4.0556 5.33325 4.33337 5.33325Z" fill="#2F7D69"/>
</g>
</svg>
