<svg width="16" height="16" viewBox="0 0 16 16" fill="none" xmlns="http://www.w3.org/2000/svg">
<path d="M1.33334 10.6668L4.026 4.20678C4.05132 4.14605 4.09405 4.09417 4.1488 4.05767C4.20355 4.02118 4.26787 4.00171 4.33367 4.00171C4.39947 4.00171 4.46379 4.02118 4.51854 4.05767C4.57329 4.09417 4.61602 4.14605 4.64134 4.20678L7.33334 10.6668" stroke="#2C2C2C" stroke-linecap="round" stroke-linejoin="round"/>
<path d="M14.6667 6V10.6667" stroke="#2C2C2C" stroke-linecap="round" stroke-linejoin="round"/>
<path d="M2.20267 8.66675H6.464" stroke="#2C2C2C" stroke-linecap="round" stroke-linejoin="round"/>
<path d="M12.3333 10.6667C13.622 10.6667 14.6667 9.622 14.6667 8.33333C14.6667 7.04467 13.622 6 12.3333 6C11.0447 6 10 7.04467 10 8.33333C10 9.622 11.0447 10.6667 12.3333 10.6667Z" stroke="#2C2C2C" stroke-linecap="round" stroke-linejoin="round"/>
</svg>
