<svg width="16" height="16" viewBox="0 0 16 16" fill="none" xmlns="http://www.w3.org/2000/svg">
<mask id="mask0_235_3205" style="mask-type:alpha" maskUnits="userSpaceOnUse" x="0" y="0" width="16" height="16">
<rect width="16" height="16" fill="#D9D9D9"/>
</mask>
<g mask="url(#mask0_235_3205)">
<path d="M14.2666 9.50016L9.49992 14.2668C9.36658 14.4002 9.21658 14.5002 9.04992 14.5668C8.88325 14.6335 8.71658 14.6668 8.54992 14.6668C8.38325 14.6668 8.21658 14.6335 8.04992 14.5668C7.88325 14.5002 7.73325 14.4002 7.59992 14.2668L1.71659 8.3835C1.59436 8.26127 1.49992 8.11961 1.43325 7.9585C1.36659 7.79738 1.33325 7.62794 1.33325 7.45016V2.66683C1.33325 2.30016 1.46381 1.98627 1.72492 1.72516C1.98603 1.46405 2.29992 1.3335 2.66659 1.3335H7.44992C7.6277 1.3335 7.79992 1.36961 7.96658 1.44183C8.13325 1.51405 8.2777 1.61127 8.39992 1.7335L14.2666 7.61683C14.3999 7.75016 14.4971 7.90016 14.5583 8.06683C14.6194 8.2335 14.6499 8.40016 14.6499 8.56683C14.6499 8.7335 14.6194 8.89739 14.5583 9.0585C14.4971 9.21961 14.3999 9.36683 14.2666 9.50016ZM4.33325 5.3335C4.61103 5.3335 4.84714 5.23627 5.04158 5.04183C5.23603 4.84738 5.33325 4.61127 5.33325 4.3335C5.33325 4.05572 5.23603 3.81961 5.04158 3.62516C4.84714 3.43072 4.61103 3.3335 4.33325 3.3335C4.05547 3.3335 3.81936 3.43072 3.62492 3.62516C3.43047 3.81961 3.33325 4.05572 3.33325 4.3335C3.33325 4.61127 3.43047 4.84738 3.62492 5.04183C3.81936 5.23627 4.05547 5.3335 4.33325 5.3335Z" fill="#2C2C2C"/>
</g>
</svg>
