<svg width="30" height="30" viewBox="0 0 30 30" fill="none" xmlns="http://www.w3.org/2000/svg">
<g clip-path="url(#clip0_133_2741)">
<circle cx="15" cy="15" r="15" fill="#6B6B6F"/>
<path d="M8.37468 15.232C8.31912 15.0823 8.31912 14.9177 8.37468 14.768C8.91581 13.4559 9.83435 12.334 11.0139 11.5446C12.1934 10.7552 13.5807 10.3337 15 10.3337C16.4193 10.3337 17.8067 10.7552 18.9862 11.5446C20.1657 12.334 21.0842 13.4559 21.6253 14.768C21.6809 14.9177 21.6809 15.0823 21.6253 15.232C21.0842 16.5441 20.1657 17.666 18.9862 18.4554C17.8067 19.2448 16.4193 19.6663 15 19.6663C13.5807 19.6663 12.1934 19.2448 11.0139 18.4554C9.83435 17.666 8.91581 16.5441 8.37468 15.232Z" stroke="white" stroke-width="1.5" stroke-linecap="round" stroke-linejoin="round"/>
<path d="M15 17C16.1046 17 17 16.1046 17 15C17 13.8954 16.1046 13 15 13C13.8954 13 13 13.8954 13 15C13 16.1046 13.8954 17 15 17Z" stroke="white" stroke-width="1.5" stroke-linecap="round" stroke-linejoin="round"/>
</g>
<defs>
<clipPath id="clip0_133_2741">
<rect width="30" height="30" fill="white"/>
</clipPath>
</defs>
</svg>
